<svg width="200" height="117" viewBox="0 0 200 117" fill="none" xmlns="http://www.w3.org/2000/svg">
    <g clip-path="url(#clip0_0_3)">
        <path d="M150.829 60.0352C150.494 59.861 150.16 59.6869 149.77 59.6288C147.428 59.1064 145.198 59.4547 142.912 59.6869C141.296 59.861 138.452 59.9191 138.619 57.5393C139.01 52.6055 145.142 52.5474 148.209 50.4578C148.599 50.2256 148.878 49.7612 148.933 49.297C148.933 49.0068 148.878 48.7165 148.766 48.4263C145.755 40.3 138.229 35.0761 130.703 32.1158C124.96 29.8521 119.776 28.9813 113.699 30.3745C112.305 30.7228 110.911 31.129 109.518 31.6514C108.402 32.0578 107.176 32.5802 105.949 33.1024C103.831 34.2054 99.9843 36.0628 98.7578 32.9285C96.5276 27.182 93.2942 21.1454 89.1128 16.5599C86.4926 13.7157 82.6456 12.3807 78.9661 13.1353C74.729 14.064 72.5548 17.5467 69.9346 20.7972C68.5964 22.4224 64.1921 27.4142 62.4638 23.4092C61.7948 21.9 62.2409 20.2167 61.9065 18.6495C60.9587 14.1221 56.6658 12.8451 52.7634 12.9031C49.3067 12.9612 45.8501 13.5997 42.5609 14.8186C39.2717 16.0375 36.2611 18.011 32.8045 18.8817C28.0099 20.1006 23.2155 15.1668 18.0306 17.2564C16.8598 17.6628 15.8006 18.2432 14.797 19.0558C12.9015 20.5069 11.5635 22.6546 11.0617 25.0924C11.006 25.2666 11.006 25.3827 10.9502 25.5568C9.89097 32.9866 7.7167 39.7777 5.65391 46.3948C3.25663 53.8825 0.803602 61.6604 0.0788427 70.135C0.0230921 70.8894 -0.0326578 71.6441 0.0230928 72.3987C0.0230928 72.3987 0.0230928 72.4568 0.0230928 72.5148C0.301847 78.7835 4.42739 84.0656 10.2812 85.5747C11.898 87.1999 14.2395 88.8831 17.4173 88.8831C17.5288 88.8831 17.6961 88.8831 17.8076 88.8831C20.0933 88.7092 22.2676 87.7223 23.9402 86.0391C25.78 83.8334 27.564 81.5697 29.2921 79.306C32.5816 83.5432 38.4353 85.7489 43.3971 84.9942C43.7317 84.9942 44.0663 84.9942 44.4007 84.9942C49.5854 85.4586 54.3243 82.3822 59.1189 82.3822C64.0249 82.8466 68.9867 82.9627 73.6699 82.208C75.2308 81.9758 76.7362 81.6278 78.2414 81.1634C78.8546 82.5563 80.0254 83.6012 81.4191 84.0656C82.9245 84.4717 84.4854 84.5879 86.0465 84.3557C89.5589 83.6593 93.74 81.8019 96.1373 83.0207C99.6497 84.8201 103.608 85.1103 107.733 84.762C109.071 84.6459 110.465 84.4137 111.859 84.1817C121.894 82.4402 132.654 80.5828 140.403 73.0951C140.403 77.3323 131.093 78.8996 133.881 83.6593C134.159 84.1817 142.466 80.4087 143.302 80.0023C145.867 78.8416 149.379 77.5645 150.829 74.8946C150.996 74.6044 151.108 74.2561 151.163 73.8497C151.275 72.2826 149.268 71.3538 148.599 70.0769C147.762 68.6257 147.874 66.7683 148.933 65.4914C149.602 64.6787 150.327 63.9821 151.163 63.4016C152.278 62.5891 152.39 61.0218 150.829 60.0352Z" fill="#E22741" />
        <path d="M54.4933 27.8791C55.2737 27.1825 55.6083 26.6022 55.5526 25.7314C55.3852 22.0747 50.4791 19.3466 47.3571 19.5207C45.9634 19.5788 44.5139 20.1012 43.9007 21.4942C37.8238 30.7813 24.4993 55.9145 18.1995 64.8533C17.9207 65.1436 17.5862 65.2597 17.196 65.3177C16.9172 65.3177 16.75 65.2016 16.75 64.8533C16.75 64.6792 16.75 64.5631 16.8057 64.3889C18.5898 58.9329 24.3321 38.7914 29.5726 30.9555C30.0744 30.4331 30.3533 29.7365 30.3533 29.0401C30.1858 25.9637 24.8897 23.9902 22.2135 24.1063C20.6525 24.1643 18.4225 24.8607 18.0322 26.8344C15.5792 43.551 8.4431 56.3789 7.16085 71.064C7.1051 71.4703 7.1051 71.8767 7.16085 72.2831C7.38384 76.4622 10.5059 78.6679 13.9067 78.784C15.3004 80.5833 16.3597 81.6282 17.419 81.5701C18.3667 81.5121 19.3145 80.6413 20.541 78.5518C26.2834 68.5683 37.2663 44.5379 54.4933 27.8791Z" fill="white" />
        <path d="M131.649 45.9884C131.425 45.9884 131.314 46.1626 131.091 46.4528C129.864 48.3102 123.23 57.3651 121.279 59.803C118.547 63.2277 114.867 67.4068 114.143 68.0454C113.697 68.6259 113.139 68.974 112.47 69.1481C112.024 69.1481 111.634 68.7998 111.634 67.9874C111.411 63.2277 118.436 54.1147 120.721 50.8061C121.223 50.1097 121.502 49.297 121.558 48.4843C121.446 45.7562 116.15 45.6401 114.031 44.2471C114.198 44.2471 115.202 41.5771 115.091 39.4875C115.035 38.0365 114.366 36.7594 112.526 36.8755C106.338 37.2238 101.432 41.7512 101.599 45.4662C101.71 47.4977 103.16 49.2971 106.616 50.1678C106.505 50.3417 106.338 50.5159 106.17 50.7481C105.111 52.0832 103.829 53.5923 102.825 54.8692C100.651 57.6553 98.2537 58.8164 96.2467 58.9325H96.0795C98.8112 53.8245 100.651 49.239 100.595 47.9038C100.484 45.5242 97.7521 42.622 94.0726 42.7961C92.1211 41.7512 90.9506 39.5455 89.278 39.6616C85.0409 39.8358 78.0721 51.2705 75.396 61.3703C75.2288 61.6025 75.0058 61.8345 74.8942 62.0087C72.8315 64.969 70.3784 67.6971 67.7025 70.0769C67.5351 70.193 67.3679 70.3091 67.2007 70.3091C66.7546 70.3091 66.5317 69.8447 66.476 69.2062C66.2528 65.0851 77.9047 40.9966 85.3195 31.4194C87.271 28.8655 87.9957 26.8339 87.94 25.2666C87.7726 21.2616 82.7551 19.9266 80.302 20.0427C78.2393 20.1587 77.6261 20.449 77.6818 20.9133C77.6818 21.4357 78.4622 22.1903 78.518 23.0609C78.518 23.3512 78.4622 23.6995 78.2951 23.9317C72.8315 34.2054 61.9043 56.4365 60.176 65.9558C60.1202 65.9558 60.0645 65.8978 60.0645 65.8978C59.3955 66.7103 56.6081 69.6125 55.1027 69.6706C54.2108 69.7286 53.4861 69.032 53.4301 68.1035C53.3186 65.3753 58.1133 57.0751 59.6187 54.9272C59.8973 54.5791 60.0645 54.1147 60.1202 53.7084C60.0645 52.1993 57.3885 50.8061 54.2665 50.9803C53.4861 50.9803 52.6497 51.1544 51.9249 51.3866C50.9213 58.1197 43.8969 72.6309 39.604 72.8631C39.1022 72.8631 38.8793 72.3407 38.8236 71.4119C38.6004 66.3041 44.2312 50.3417 54.7683 49.8195C55.9391 49.7614 57.1097 49.9356 58.2804 50.2256C58.5593 50.2837 58.838 50.3417 59.0611 50.3417C60.2876 50.2837 61.3467 48.0199 61.2353 45.6401C61.1238 43.0283 59.6186 40.4163 55.4373 40.5904C42.8375 41.1707 33.1369 61.9506 33.6386 72.747C33.8058 76.1135 36.8721 77.9711 40.0501 77.855C42.0013 77.7389 45.2348 75.359 48.1339 71.7021C48.4683 74.4883 49.9737 75.7652 52.1479 75.7073C54.4894 75.5912 57.5557 73.6756 60.2319 69.9028C60.9566 73.0953 63.5769 77.0423 66.3085 76.9262C67.0892 76.8681 67.8139 76.5198 68.3715 75.9393C70.1555 74.3141 72.4411 71.2958 74.4483 68.5679C74.4483 68.974 74.4483 69.3803 74.4483 69.7286C74.6712 74.0239 76.6225 76.9262 81.1942 76.694C84.818 76.5198 89.724 70.2511 93.738 63.576C94.2398 63.6921 94.7973 63.6921 95.3548 63.634C98.6998 63.4599 102.547 61.4284 105.334 57.1331C106.728 54.9853 108.122 52.7215 109.237 50.8061C109.85 50.9222 110.519 50.9222 111.188 50.9803C108.623 56.6687 104.832 66.5361 105.111 72.2246C105.223 74.8946 106.282 76.5779 108.735 76.4618C113.307 76.2296 120.387 67.3488 123.397 62.7053C127.244 56.959 131.202 50.7481 132.987 47.5558C132.819 47.2655 132.318 45.9304 131.649 45.9884ZM88.3858 57.5973C88.4416 58.5261 88.6647 59.4549 89.1108 60.3254C86.6577 65.8978 82.1975 72.4568 80.2463 72.5729C79.8002 72.5729 79.5216 72.3407 79.4658 71.7021C79.0755 63.4599 86.2117 52.5474 89.278 52.3735H89.5009C88.7204 53.9406 88.3301 55.798 88.3858 57.5973Z" fill="white" />
        <path d="M17.4166 98.1135H13.8486V97.3008C13.8486 96.5461 13.6813 95.7337 13.2911 95.0951C12.845 94.4566 12.1203 94.1083 11.3398 94.1663C10.9495 94.1663 10.5035 94.2244 10.169 94.4566C9.89025 94.6307 9.6115 94.8629 9.44425 95.2112C9.27699 95.5595 9.10975 95.9078 9.054 96.3139C8.99825 96.7203 8.94249 97.1266 8.94249 97.591C8.94249 97.9974 8.94249 98.4616 8.99825 98.8679C9.054 99.1582 9.10975 99.5065 9.27699 99.7967C9.44425 100.087 9.6115 100.319 9.89025 100.493C10.2248 100.725 10.615 100.899 11.0053 101.074L13.7371 102.177C14.4061 102.409 15.0751 102.815 15.6883 103.279C16.1901 103.686 16.5803 104.208 16.8591 104.731C17.1378 105.369 17.3051 106.007 17.3609 106.704C17.4723 107.516 17.5281 108.387 17.4723 109.258C17.4723 110.303 17.3609 111.289 17.1378 112.276C16.9706 113.147 16.6361 113.96 16.1343 114.656C15.6326 115.353 14.9636 115.875 14.1831 116.281C13.291 116.688 12.2875 116.92 11.284 116.862C10.4478 116.862 9.6115 116.688 8.88674 116.397C8.16198 116.107 7.49297 115.643 6.93546 115.062C6.37795 114.482 5.98771 113.843 5.65319 113.089C5.3187 112.334 5.15144 111.522 5.20719 110.651V109.258H8.77523V110.419C8.77523 111.057 8.94249 111.754 9.33274 112.276C9.83449 112.857 10.5593 113.147 11.284 113.089C11.7858 113.089 12.2318 113.031 12.6778 112.799C13.0123 112.624 13.2911 112.334 13.4583 112.044C13.6813 111.696 13.7928 111.231 13.7928 110.825C13.8486 110.361 13.8486 109.838 13.8486 109.258C13.8486 108.677 13.8486 108.155 13.7928 107.575C13.7928 107.226 13.6813 106.82 13.514 106.53C13.3468 106.24 13.1238 106.065 12.845 105.891C12.5105 105.659 12.1203 105.485 11.7858 105.369L9.22123 104.266C7.66022 103.628 6.65672 102.757 6.09921 101.654C5.54171 100.377 5.26294 98.984 5.3187 97.591C5.3187 96.6622 5.4302 95.7337 5.70894 94.8049C5.93195 93.9922 6.3222 93.2377 6.87971 92.5411C7.38146 91.9026 8.05047 91.3801 8.77523 91.0321C9.6115 90.6257 10.5593 90.4516 11.507 90.4516C12.3433 90.4516 13.1796 90.6257 13.96 90.974C14.6848 91.3221 15.2981 91.7284 15.8556 92.3089C16.8591 93.3538 17.4723 94.8049 17.4723 96.3139L17.4166 98.1135Z" fill="white" />
        <path d="M19.8665 96.7774C19.8665 95.8486 20.0338 94.862 20.3682 93.9913C20.7028 93.2366 21.1488 92.5402 21.762 91.9597C22.3195 91.4373 22.9885 91.0309 23.6575 90.799C25.7762 89.9863 28.1733 90.4507 29.9016 91.9597C30.4591 92.5402 30.9609 93.1786 31.2396 93.9913C31.6299 94.862 31.7971 95.7906 31.7413 96.7774V110.476C31.7413 111.463 31.5742 112.391 31.2396 113.262C30.9052 114.017 30.4591 114.655 29.9016 115.177C29.344 115.7 28.6751 116.106 27.9503 116.397C26.5566 116.919 25.0512 116.919 23.6575 116.397C22.9328 116.106 22.3195 115.7 21.762 115.177C21.1488 114.655 20.7028 114.017 20.3682 113.262C19.978 112.391 19.8107 111.405 19.8665 110.476V96.7774ZM23.4346 110.476C23.3789 111.231 23.6575 111.927 24.1593 112.449C25.1629 113.32 26.5566 113.32 27.56 112.449C28.0618 111.927 28.3407 111.231 28.2849 110.476V96.7774C28.3407 96.0228 28.0618 95.3264 27.56 94.804C26.5566 93.9332 25.1629 93.9332 24.1593 94.804C23.6575 95.3264 23.3789 96.0228 23.4346 96.7774V110.476Z" fill="white" />
        <path d="M34.9807 116.571V90.6251H45.629V94.1078H38.5488V102.002H44.6813V105.484H38.5488V116.571H34.9807Z" fill="white" />
        <path d="M51.4834 116.571V94.1078H47.3578V90.6251H59.1769V94.1078H55.0515V116.571H51.4834Z" fill="white" />
        <path d="M80.4126 90.6833L76.6773 116.629H73.3321L70.6004 99.7963H70.5447L67.8685 116.629H64.5236L60.7883 90.6833H64.5793L66.3634 107.168H66.4191L69.2067 90.6833H71.9384L74.8375 107.574H74.8933L76.6216 90.6833H80.4126Z" fill="white" />
        <path d="M80.0211 116.571L85.5962 90.6251H88.551L94.1261 116.571H90.558L89.4987 110.999H84.6483L83.5892 116.571H80.0211ZM88.8297 107.516L87.1013 98.1128H87.0456L85.3173 107.516H88.8297Z" fill="white" />
        <path d="M97.0856 116.571V90.6251H102.828C107.009 90.6251 109.128 93.179 109.128 98.2289C109.184 99.5638 108.905 100.899 108.459 102.118C107.957 103.221 107.121 104.15 106.062 104.73L109.908 116.571H106.117L102.772 105.484H100.654V116.571H97.0856ZM100.654 94.1659V102.234H102.661C103.162 102.234 103.664 102.176 104.166 101.944C104.5 101.77 104.835 101.48 105.058 101.131C105.281 100.725 105.393 100.319 105.448 99.8541C105.56 98.6933 105.56 97.5323 105.448 96.3715C105.393 95.9071 105.225 95.5008 105.002 95.0944C104.556 94.3981 103.72 94.0498 102.493 94.0498L100.654 94.1659Z" fill="white" />
        <path d="M112.588 116.571V90.6251H123.236V94.1078H116.156V101.712H122.288V105.194H116.156V112.856H123.236V116.571H112.588Z" fill="white" />
        <path d="M163.984 14.1229H152.388V20.9722H163.984V14.1229Z" fill="#FECB3D" />
        <path d="M181.827 95.9648L176.252 95.5003L172.573 92.1917L155.569 94.4555L147.262 94.5135L147.094 112.739H159.192C160.029 112.449 167.667 110.65 171.067 110.824C174.468 110.998 180.21 112.101 181.883 112.739C181.883 112.739 187.681 112.565 189.8 112.101C191.918 111.637 196.601 109.141 196.601 109.141L181.827 95.9648Z" fill="#E22741" />
        <path d="M146.704 113.321C145.142 113.321 143.693 114.307 143.136 115.873C143.136 115.873 154.286 115.931 154.564 115.931C155.178 115.815 155.735 115.467 156.125 115.003C156.349 114.481 156.571 113.901 156.683 113.321H146.704Z" fill="#FFEFD1" />
        <path d="M198.662 114.248C198.327 113.9 197.881 113.61 197.435 113.436C196.989 113.262 196.543 113.146 196.041 113.146C195.93 113.146 195.818 113.146 195.651 113.146H195.205C194.982 113.146 194.703 113.146 194.48 113.087C193.477 112.972 192.529 112.623 191.637 112.101L191.47 111.985L186.452 113.262C186.396 113.9 186.508 114.539 186.731 115.119C187.065 115.816 188.626 116.048 189.184 116.048L199.163 115.932V115.467C199.219 115.003 198.996 114.597 198.662 114.248Z" fill="#FFEFD1" />
        <path d="M181.048 89.6389L184.282 83.1379C184.282 83.1379 187.236 83.7185 188.63 84.5309C189.076 84.7631 190.86 85.9822 191.027 86.5624C191.195 87.1429 190.358 89.1745 190.303 89.4647C191.027 90.0452 191.306 91.0321 190.972 91.9026C190.47 92.9475 188.407 92.5992 187.571 92.4831C186.735 92.367 181.048 89.6389 181.048 89.6389Z" fill="#FFEFD1" />
        <path d="M154.564 70.9488C150.773 70.9488 147.037 70.4264 143.414 69.2654C142.187 68.8592 141.016 68.3948 139.901 67.8143C139.344 67.5241 138.786 67.1758 138.284 66.8277C138.062 66.6536 137.838 66.4213 137.616 66.2472C137.616 66.2472 137.616 66.2472 137.56 66.1892H137.448L137.337 65.8409L137.671 65.6667L137.337 65.8409L137.225 65.4925L137.002 64.6798C136.612 63.403 136.222 62.1261 135.776 60.849C135.831 61.2554 135.887 61.7197 135.943 62.1841L136.055 62.7644L135.497 62.7064C134.605 62.6483 133.824 62.3 133.1 61.7198C132.263 61.0232 131.539 60.0943 131.037 59.1077C130.145 57.3084 129.309 52.5488 129.253 51.5619C129.197 50.7492 129.253 49.9948 129.364 49.1821C129.42 48.6596 129.587 48.1374 129.755 47.615C129.866 47.2086 130.201 46.8603 130.647 46.6861C130.87 46.6281 131.093 46.6281 131.316 46.6281C132.04 46.6281 132.821 46.9184 133.378 47.3828C134.159 48.0794 134.772 48.9499 135.218 49.9367C135.497 50.5172 135.664 51.1556 135.776 51.7941C136.11 51.1556 136.668 50.0528 137.225 49.0079C139.4 44.5966 143.023 37.1669 146.926 35.0192L146.982 34.9612H147.037C148.487 34.6129 149.992 34.3809 151.498 34.2068C153.17 34.0326 154.842 33.9165 156.571 33.9165H156.627C159.972 33.9165 163.372 34.2648 166.662 34.9031H166.718C166.773 34.9031 166.829 34.9031 166.829 34.9031H166.885C168.669 34.2648 170.453 33.6843 172.237 33.2199C173.909 32.7555 175.582 32.4653 177.31 32.3492H177.533L177.7 32.5233C177.979 32.9296 178.202 33.336 178.481 33.8004C178.76 34.3809 179.038 34.9612 179.261 35.5997C179.707 36.8186 180.098 38.0956 180.376 39.3725C180.878 41.9845 181.101 44.5966 181.045 47.2667C180.99 47.4989 181.157 47.673 181.38 47.7311C181.547 47.7311 181.714 47.673 181.77 47.4988V47.4408C181.937 46.9764 182.216 46.5701 182.495 46.1057V46.0478C182.774 45.5834 183.164 45.1771 183.554 44.8288C184.335 44.1322 185.394 43.9 186.398 44.1322C186.732 44.1902 187.067 44.5385 187.289 45.061C187.512 45.5834 187.624 46.1057 187.68 46.6281C187.791 47.3828 187.847 48.1954 187.791 49.0079L187.68 50.285C187.457 52.4327 186.843 54.5803 185.896 56.4957C185.394 57.4825 184.669 58.3531 183.833 59.0497C183.052 59.6302 182.16 59.9782 181.213 59.9782C181.101 59.9782 181.045 59.9782 180.934 59.9782H180.544V59.5721C180.544 59.0497 180.488 58.5272 180.488 58.0048C180.376 58.6433 180.209 59.2238 180.153 59.7463C180.098 60.0944 180.042 60.4427 179.986 60.791C179.93 61.0812 179.875 61.3715 179.819 61.7198L179.652 62.7064C179.652 62.8225 179.596 62.9966 179.596 63.1127V63.1708H179.484L179.596 63.2288V63.2869L179.54 63.3449C179.54 63.403 179.484 63.403 179.484 63.461C179.094 63.9254 178.704 64.3318 178.202 64.6798C177.7 65.0862 177.199 65.4345 176.641 65.7248C175.526 66.3633 174.411 66.9438 173.24 67.408C168.501 69.3234 163.54 70.4844 158.522 70.8327C157.073 70.8907 155.79 70.9488 154.564 70.9488Z" fill="#FFEFD1" />
        <path d="M167.664 87.2581C167.608 87.2581 167.664 87.2581 167.664 87.2581C168.333 88.0128 170.396 90.1024 170.396 90.1024L161.364 90.9731C160.528 89.4638 158.688 88.8833 157.239 89.7541C156.737 90.0443 156.347 90.4507 156.068 90.9731L149.043 90.6248C149.043 90.6248 155.622 83.6014 156.96 81.6858C158.298 79.7704 163.148 71.0057 163.148 71.0057C163.148 71.0057 170.73 74.9527 174.187 76.5781C177.978 78.3193 185.002 80.9894 185.002 80.9894L180.375 89.3477C180.375 89.3477 177.309 87.3162 176.473 89.0575C175.636 90.799 179.65 92.3661 179.65 92.3661L176.417 94.6298C176.473 94.6298 168.667 88.0128 167.664 87.2581Z" fill="white" />
        <path d="M149.209 71.6438L147.035 71.2375L132.707 91.0307C132.707 91.0307 138.003 95.0938 139.174 95.6743C141.181 96.7189 146.31 98.2863 146.31 98.2863C146.31 98.2863 146.589 84.9359 146.812 83.0205C147.035 84.9359 147.258 90.3922 147.258 90.3922L149.321 90.5663C149.321 90.5663 152.666 87.1416 153.725 85.6325C154.338 84.8779 157.07 79.9443 157.07 79.9443L149.209 71.6438Z" fill="white" />
        <path d="M152.721 91.9019C151.048 91.8439 149.376 91.7858 147.647 91.6699C147.647 92.1919 147.647 92.714 147.703 93.236C149.543 93.3521 151.438 93.352 153.334 93.352C154.003 93.352 154.672 93.352 155.341 93.294C155.285 93.004 155.23 92.7139 155.23 92.4239C155.23 92.25 155.23 92.0758 155.285 91.8439C154.449 91.96 153.613 91.96 152.721 91.9019Z" fill="#FCBD19" />
        <path d="M150.22 71.8191L162.094 71.5869C160.756 74.7214 159.028 77.6234 156.909 80.2354C154.289 77.7976 152.003 74.9536 150.22 71.8191Z" fill="#F9BC8D" />
        <path d="M187.456 83.4858L191.024 77.7976L193.087 79.1905L189.63 84.7629L187.456 83.4858Z" fill="#FCBD19" />
        <path d="M171.401 91.7271C171.011 91.3793 170.62 90.9731 170.23 90.6251C167.498 91.1471 164.767 91.4951 162.035 91.669C162.091 91.9591 162.146 92.1913 162.146 92.4811C162.146 92.6552 162.146 92.8872 162.091 93.0611C165.268 92.8292 168.335 92.4233 171.401 91.7271Z" fill="#FCBD19" />
        <path d="M168.838 95.2679C168.838 95.2679 174.524 105.542 182.943 109.779C182.998 109.779 169.897 95.7323 168.838 95.2679Z" fill="#010101" />
        <path d="M173.24 108.793C169.783 107.052 166.773 104.324 164.431 101.654L165.992 101.131C169.616 104.904 173.24 108.793 173.24 108.793Z" fill="#010101" />
        <path d="M158.75 94.9779C160.144 94.9779 161.259 93.8171 161.259 92.3659C161.259 90.9148 160.144 89.7538 158.75 89.7538C157.356 89.7538 156.241 90.9148 156.241 92.3659C156.241 93.8171 157.356 94.9779 158.75 94.9779Z" fill="#FECB3D" />
        <path d="M155.785 91.4953L147.2 91.2634L147.256 93.7575L155.897 93.8736L155.785 91.4953Z" fill="#FECB3D" />
        <path d="M170.399 90.1604L161.534 91.2632L161.59 93.5849C165.214 93.643 168.893 93.1207 172.35 92.0178L170.399 90.1604Z" fill="#FECB3D" />
        <path d="M160.419 95.0953L157.576 95.5597L158.3 103.918L164.377 101.306L160.419 95.0953Z" fill="#FECB3D" />
        <path d="M138.559 99.389C136.496 97.7058 136.552 94.2233 136.552 94.2233L142.796 97.5897C142.796 97.5897 140.622 101.072 138.559 99.389Z" fill="#FFEFD1" />
        <path d="M145.752 110.244C144.135 110.128 139.452 109.374 139.452 109.374C139.173 109.49 156.4 105.601 160.582 103.279C165.543 101.479 178.422 94.1661 180.429 92.7729L182.38 93.8758C180.763 96.1976 173.739 101.712 170.728 103.511C167.383 105.659 156.735 111.231 156.735 111.231C156.735 111.231 146.365 110.302 145.752 110.244Z" fill="white" />
        <path d="M187.129 96.4879C186.126 96.2557 177.205 90.9158 177.205 90.9158C176.648 90.5675 176.425 89.8128 176.648 89.1743C177.038 88.3618 178.209 88.4198 178.488 88.594C178.488 88.594 188.077 93.8759 188.523 94.5144C188.969 95.153 189.136 95.6173 188.857 96.1396C188.579 96.662 188.133 96.7781 187.129 96.4879Z" fill="#FCBD19" />
        <path d="M135.668 86.9096L133.717 89.6956C133.717 89.6956 140.407 94.6294 146.205 96.3709V92.5398C146.261 92.4817 139.459 89.9278 135.668 86.9096Z" fill="#E22741" />
        <path d="M147.598 71.5284L146.762 71.4123L145.479 73.2116C147.765 77.9132 154.567 84.0658 154.567 84.0658L156.629 81.2216C151.891 78.4357 147.598 71.5284 147.598 71.5284Z" fill="#E22741" />
        <path d="M164.825 71.7606C164.825 71.7606 158.191 86.5037 150.553 91.0892L155.236 91.2053C155.236 91.2053 162.93 85.7493 168.449 74.3724L164.825 71.7606Z" fill="#E22741" />
        <path d="M178.986 88.767C178.986 88.767 182.832 82.3822 183.39 80.2924C183.446 80.1185 178.818 78.5511 178.818 78.5511C177.369 84.2395 172.63 91.4371 172.63 91.4371L175.919 94.0491C176.644 93.1783 177.313 92.1915 177.926 91.2629C177.926 91.2629 176.198 90.2761 176.923 89.0573C177.647 87.8382 178.986 88.767 178.986 88.767Z" fill="#E22741" />
        <path d="M131.483 51.6769C127.469 51.0964 129.643 56.2624 129.643 56.2624L131.372 59.7449C131.372 59.7449 130.089 57.017 132.208 56.6107C134.327 56.2043 135.107 58.6422 135.107 58.6422C135.107 58.6422 135.441 52.3154 131.483 51.6769Z" fill="#F9BC8D" />
        <path d="M187.625 50.807C187.681 49.0657 185.785 49.356 183.778 50.1104C181.771 50.8651 180.6 57.424 180.6 57.424L180.991 59.1653C180.991 59.1653 182.552 53.1288 184.614 53.0707C186.677 53.0127 186.343 56.0311 186.343 56.0311C186.343 56.0311 187.569 52.5483 187.625 50.807Z" fill="#F9BC8D" />
        <path d="M142.073 64.3309C143.467 62.9377 144.303 61.0803 144.47 59.1068C144.638 55.8562 143.188 51.7932 143.801 50.9225C143.801 50.9225 153.836 51.4449 155.453 50.9225C157.07 50.4002 158.464 46.6853 155.453 44.0732C155.788 45.1762 155.955 46.2789 156.066 47.4399C156.178 48.2526 156.011 49.007 155.732 49.7617C155.732 49.7617 154.896 49.8197 150.882 47.7882C149.265 47.0336 147.648 46.1628 146.143 45.2342C146.143 45.2342 149.822 39.2555 148.596 35.1925L145.753 35.3666C145.753 35.3666 144.359 41.1131 143.3 42.8544C142.24 44.5957 139.062 49.6456 139.843 52.1996C140.623 54.7535 142.24 59.1649 142.296 60.2676C142.352 61.3706 142.073 64.3309 142.073 64.3309Z" fill="#F9BC8D" />
        <path d="M169.677 47.9043C169.677 47.9043 170.569 41.3453 175.754 38.9075C172.632 38.6172 169.622 40.0682 167.782 42.6803C164.604 47.2077 162.987 48.3107 162.987 48.3107C162.987 48.3107 160.534 48.5426 159.921 45.3503L159.642 46.6853C159.531 46.8594 160.144 50.5163 162.095 51.3288C164.047 52.1415 168.172 50.8064 168.172 50.8064H177.873C175.921 48.3107 172.744 47.2077 169.677 47.9043Z" fill="#F9BC8D" />
        <path d="M156.074 57.4245C156.074 57.4245 157.078 61.5456 159.196 61.8939C161.315 62.2422 162.709 57.4245 162.709 57.4245C162.709 57.4245 160.925 59.2819 159.252 59.1658C157.58 59.0497 156.074 57.4245 156.074 57.4245Z" fill="#F9BC8D" />
        <path d="M154.231 66.1876C154.231 66.1876 159.973 67.2896 163.653 65.4334C163.653 65.4334 161.813 68.4495 158.524 68.3914C155.235 68.3336 154.231 66.1876 154.231 66.1876Z" fill="#F9BC8D" />
        <path d="M199.22 113.727C198.83 113.32 198.328 112.972 197.771 112.74C197.269 112.508 196.712 112.392 196.154 112.334C195.541 112.276 195.151 112.276 194.704 112.218C194.259 112.16 193.868 111.985 193.478 111.811C194.76 111.231 196.043 110.534 197.158 109.664C197.213 109.664 197.213 109.606 197.269 109.548C197.492 109.315 197.436 108.909 197.213 108.735L182.718 95.2686C182.83 95.1525 182.941 95.0364 183.053 94.9784C183.387 95.1525 183.722 95.3847 184.056 95.5589L185.673 96.5457L186.509 97.0679C186.676 97.184 186.844 97.2421 187.011 97.3582C187.234 97.4743 187.457 97.4743 187.68 97.5323H187.736C188.795 97.5323 189.687 96.6618 189.687 95.5589C189.687 95.0364 189.52 94.572 189.185 94.2239C189.074 94.1078 189.018 93.9917 188.907 93.9337L188.795 93.8176L188.684 93.7015L188.293 93.4693C188.182 93.4112 188.126 93.3532 188.014 93.2951C188.238 93.2951 188.405 93.3532 188.628 93.3532C189.297 93.4112 189.966 93.2951 190.579 93.0629C190.969 92.8888 191.248 92.5985 191.471 92.1922C191.638 91.8441 191.75 91.3797 191.638 90.9733C191.527 90.3928 191.192 89.8124 190.691 89.5223C190.913 89.2321 191.081 88.9418 191.248 88.5935C191.527 88.1291 191.694 87.6647 191.861 87.2005C191.917 87.0264 191.917 86.7942 191.917 86.62C191.917 86.562 191.861 86.4459 191.861 86.3878L191.806 86.2717C191.75 86.2137 191.694 86.0976 191.694 86.0395C191.527 85.8073 191.36 85.5752 191.137 85.401C190.969 85.2269 190.802 85.1107 190.635 84.9368L193.98 79.5386C194.147 79.2484 194.091 78.842 193.813 78.6679L191.471 77.1007C191.192 76.9266 190.802 76.9846 190.635 77.2749L187.122 82.847C186.565 82.615 186.007 82.4409 185.45 82.2667L185.896 81.3379C185.896 81.2799 185.952 81.2799 185.952 81.2218C186.063 80.8735 185.84 80.5253 185.561 80.4674C181.882 79.1323 178.258 77.5652 174.69 75.8239C171.847 74.4307 169.004 72.9797 166.16 71.4704C168.78 70.8901 171.289 70.0774 173.742 68.9744C174.969 68.4522 176.14 67.8136 177.255 67.117C177.812 66.7687 178.37 66.3626 178.927 65.9563C179.54 65.4919 180.042 64.9694 180.488 64.3309C180.544 64.215 180.6 64.0989 180.655 63.9828C180.655 63.9248 180.711 63.8667 180.711 63.7506L180.767 63.6345V63.5765C180.823 63.3443 180.823 63.2282 180.878 63.054C180.934 62.7057 180.934 62.3574 180.99 62.0091C180.99 61.661 180.99 61.3127 181.046 61.0225C182.216 61.0805 183.387 60.7322 184.335 60.0356C185.283 59.2812 186.119 58.3524 186.732 57.2497C187.847 55.1599 188.572 52.7801 188.851 50.4002C189.018 49.1814 189.018 47.9626 188.907 46.7435C188.851 46.105 188.684 45.4666 188.46 44.8281C188.293 44.4798 188.126 44.1315 187.847 43.8413C187.68 43.6671 187.569 43.551 187.345 43.4349C187.234 43.3771 187.122 43.319 187.011 43.261C186.9 43.2029 186.844 43.2029 186.732 43.1449C186.063 42.9707 185.394 42.9707 184.725 43.1449C184.335 43.261 184 43.3768 183.666 43.609C183.833 42.6224 183.945 41.6356 184 40.649C184.112 38.7914 184.112 36.8759 184 35.0185C183.945 34.5541 183.945 34.0897 183.889 33.5675C183.889 33.3353 183.833 33.0451 183.778 32.8129C183.722 32.5807 183.666 32.2904 183.61 32.0582C183.331 31.1297 182.885 30.2008 182.384 29.3884C181.324 27.763 180.098 26.37 178.648 25.1509C175.805 22.7711 172.627 20.9138 169.171 19.6949C168.558 19.4627 168 19.2886 167.387 19.1144C168.669 18.0116 170.342 16.1541 170.676 13.6582C171.011 11.3945 170.342 7.62163 168 4.66137C166.439 2.68785 163.54 0.249986 158.467 0.0178091C154.341 -0.156324 150.996 0.946519 148.599 3.32633C146.313 5.64811 145.031 8.84056 145.031 12.1491C144.975 15.6317 147.261 18.0696 148.878 19.3466C148.487 19.4627 148.153 19.5788 147.762 19.7529C144.306 21.0879 141.184 23.2936 138.731 26.1378C137.504 27.5888 136.557 29.3303 135.888 31.1296C135.33 32.929 134.94 34.8444 134.828 36.7598C134.605 40.4748 134.828 44.1315 135.442 47.7884C135.442 47.8465 135.442 47.8465 135.442 47.9045C135.107 47.4401 134.717 47.0338 134.271 46.6274C133.713 46.163 133.1 45.8728 132.431 45.6989C131.762 45.5247 131.037 45.5247 130.368 45.6989C130.257 45.6989 130.145 45.7567 130.089 45.8147C129.978 45.8728 129.867 45.9308 129.755 45.9889C129.588 46.105 129.42 46.2791 129.253 46.4533C129.03 46.7435 128.807 47.0918 128.64 47.4401C128.417 48.0784 128.25 48.717 128.194 49.3556C128.082 50.5744 128.082 51.7934 128.25 53.0123C128.529 55.3921 129.253 57.7719 130.424 59.8615C131.037 60.9644 131.818 61.8932 132.821 62.5896C133.713 63.1701 134.717 63.5184 135.776 63.4603C135.943 64.3309 136.111 65.2016 136.333 66.0724L136.389 66.3046L136.445 66.4207C136.445 66.4787 136.501 66.5368 136.501 66.5948C136.612 66.8268 136.724 67.059 136.891 67.2331C137.114 67.5234 137.393 67.7556 137.727 67.9878C138.285 68.3942 138.842 68.8005 139.456 69.1486C140.626 69.7871 141.853 70.3676 143.079 70.774C143.916 71.0642 144.752 71.2962 145.588 71.5284L132.208 90.9153C132.041 91.1475 132.096 91.4958 132.32 91.6699C133.379 92.5405 134.438 93.3532 135.497 94.1078C135.497 94.2239 135.497 94.282 135.497 94.3981C135.609 95.4428 135.888 96.4876 136.278 97.4743C136.668 98.5772 137.281 99.5058 138.173 100.26C138.452 100.435 138.731 100.609 139.01 100.725C139.177 100.783 139.344 100.841 139.511 100.841H139.623H139.734H139.957C140.571 100.841 141.184 100.667 141.686 100.377C142.41 99.9122 142.968 99.2155 143.247 98.4031C144.083 98.7514 144.975 98.9836 145.867 99.2155C145.867 101.189 145.867 103.163 145.867 105.136C145.867 106.007 145.867 106.819 145.923 107.69C143.581 108.271 141.184 108.793 138.787 109.257C138.619 109.257 138.508 109.431 138.508 109.548C138.452 109.722 138.619 109.954 138.787 109.954C141.184 110.36 143.581 110.709 145.978 110.999C145.978 111.637 146.034 112.276 146.034 112.914C145.7 113.03 145.421 113.146 145.086 113.262C144.64 113.494 144.25 113.727 143.86 114.017C143.414 114.365 143.079 114.772 142.856 115.294C142.801 115.468 142.745 115.7 142.745 115.874C142.801 116.165 142.912 116.397 143.079 116.571C143.358 116.803 143.693 116.919 144.027 116.861H145.309H147.874C149.547 116.861 151.275 116.919 153.003 116.977C153.449 116.977 153.839 116.977 154.285 116.977C154.787 116.977 155.344 116.861 155.791 116.629C156.348 116.397 156.794 115.99 157.073 115.468C157.296 115.062 157.463 114.597 157.519 114.133H159.191C159.303 114.133 159.414 114.133 159.526 114.075C161.254 113.262 163.038 112.682 164.878 112.334C166.773 111.985 168.669 111.811 170.564 111.753C172.46 111.753 174.356 111.927 176.251 112.334C178.091 112.682 179.931 113.262 181.603 114.075C181.659 114.133 181.77 114.133 181.826 114.133H181.882C182.161 114.133 182.439 114.133 182.718 114.133C183.61 114.133 184.502 114.075 185.338 114.017C185.394 114.307 185.45 114.539 185.506 114.83C185.617 115.178 185.784 115.468 186.007 115.758C186.398 116.281 187.011 116.687 187.624 116.861C188.182 116.977 188.739 117.035 189.297 116.977L190.802 116.919C192.809 116.861 194.76 116.861 196.767 116.861H198.273H198.663C198.83 116.861 198.997 116.861 199.109 116.861C199.388 116.803 199.611 116.687 199.778 116.455C199.945 116.281 200.001 115.99 200.001 115.758C199.945 114.888 199.666 114.191 199.22 113.727ZM190.579 86.7942V86.7362C190.579 86.7362 190.579 86.7361 190.579 86.7942ZM189.129 85.6332C189.464 85.8654 189.854 86.0976 190.133 86.3298C190.3 86.4459 190.412 86.562 190.523 86.6781L190.579 86.7362C190.412 87.6067 190.133 88.4774 189.854 89.2901L189.798 89.4062C189.743 89.5223 189.854 89.6965 189.966 89.7545C190.3 90.0445 190.467 90.4509 190.467 90.9153C190.467 91.2636 190.244 91.5539 189.966 91.6119C189.52 91.728 189.074 91.728 188.628 91.6699C188.126 91.6119 187.569 91.4958 187.067 91.3797C186.007 91.0895 185.004 90.7411 184 90.3348C183.22 89.9865 182.439 89.6965 181.659 89.2901L184.502 83.5436C186.119 84.1822 187.68 84.8207 189.129 85.6332ZM174.021 77.0427C177.422 78.6679 180.878 80.0611 184.391 81.2799L180.265 88.7677L179.931 88.5935L179.094 88.1291C178.704 87.8969 178.314 87.7228 177.868 87.7228C176.809 87.7228 175.972 88.5935 176.028 89.6965C176.028 90.1607 176.195 90.6831 176.53 91.0314C176.641 91.1475 176.697 91.2055 176.809 91.2636C176.864 91.3216 176.92 91.3216 176.92 91.3216L177.032 91.3797L177.478 91.6119L178.871 92.3663C178.147 92.8888 177.366 93.4693 176.586 93.9917C175.693 93.121 174.802 92.3083 173.854 91.4958C172.906 90.6831 171.958 89.8704 170.955 89.116C169.951 88.3613 169.003 87.5486 167.944 86.8523C166.941 86.0976 165.937 85.401 164.878 84.7046C165.658 85.6912 166.55 86.62 167.387 87.5486C168.056 88.3033 168.78 89.0579 169.505 89.7545C166.885 90.1606 164.265 90.3929 161.644 90.4509C160.585 88.7677 158.411 88.3613 156.85 89.4643C156.46 89.7545 156.125 90.1026 155.846 90.509C154.843 90.509 153.839 90.4509 152.836 90.3928C151.944 90.3348 151.107 90.2767 150.216 90.2187C151.386 89.174 152.501 88.0711 153.505 86.9103C154.174 86.0976 154.843 85.343 155.512 84.4724C156.125 83.6597 156.738 82.7892 157.351 81.9184C158.522 80.2352 159.693 78.4937 160.752 76.6944C161.7 75.1273 162.592 73.444 163.428 71.8186H163.484C166.941 73.6182 170.453 75.3595 174.021 77.0427ZM170.397 97.7065C170.342 97.7065 166.495 99.738 164.599 100.667C163.986 99.738 163.428 98.8094 162.927 97.7645C162.425 96.7199 161.979 95.6169 161.533 94.5139C165.212 94.2239 168.836 93.5854 172.404 92.7146C172.46 92.7727 174.188 94.34 174.969 94.9784C173.575 95.8491 172.181 96.6618 170.732 97.4743C170.063 96.7198 169.394 95.9652 168.78 95.2105C169.338 96.0813 169.84 96.9518 170.397 97.7065ZM155.344 93.4112C154.676 93.4112 154.007 93.4112 153.338 93.4112C151.442 93.4112 149.602 93.3532 147.707 93.2951C147.707 92.7727 147.707 92.2502 147.651 91.728C149.323 91.8441 151.052 91.9022 152.724 91.9602C153.56 91.9602 154.397 91.9602 155.289 91.9602C155.233 92.1341 155.233 92.3083 155.233 92.4824C155.233 92.7727 155.289 93.121 155.344 93.4112ZM147.762 96.6618C147.762 96.0813 147.762 95.5008 147.762 94.9784C148.989 95.0364 150.216 95.0364 151.442 95.0364V95.675V96.9518C151.498 97.7645 151.498 98.6353 151.553 99.4478C151.609 100.26 151.665 101.131 151.776 101.944C151.888 102.756 152 103.627 152.167 104.44C152.334 103.627 152.445 102.756 152.557 101.944C152.669 101.131 152.724 100.26 152.78 99.4478C152.836 98.6353 152.891 97.7645 152.891 96.9518L152.947 95.675V95.0364C153.059 95.0364 155.177 94.9783 156.069 94.9203C156.181 95.0364 156.292 95.1525 156.404 95.2686C156.404 95.2686 156.404 95.2686 156.404 95.3267C156.515 96.8357 156.627 98.345 156.85 99.8541C157.017 101.189 157.24 102.466 157.575 103.743C154.341 105.02 150.996 106.065 147.651 106.994C147.651 106.297 147.707 105.659 147.707 104.962C147.762 102.176 147.762 99.4478 147.762 96.6618ZM157.073 93.3532C156.85 92.8888 156.794 92.3663 156.961 91.9022C157.24 90.9153 158.299 90.3348 159.247 90.6831C159.749 90.8573 160.195 91.2636 160.362 91.7861C160.474 92.0183 160.474 92.2502 160.474 92.4824C160.474 92.7146 160.418 92.9468 160.362 93.179C160.306 93.3532 160.195 93.5273 160.083 93.6434C160.028 93.7595 159.972 93.8176 159.86 93.8756C159.526 94.1659 159.08 94.34 158.634 94.34C158.021 94.3981 157.407 93.9917 157.073 93.3532ZM158.69 96.0813L160.752 102.408C160.529 102.524 160.362 102.582 160.139 102.698C159.693 102.872 159.191 103.047 158.745 103.279C158.522 102.118 158.355 100.899 158.299 99.68C158.188 98.4611 158.188 97.2421 158.132 96.0813C158.299 96.0813 158.467 96.0813 158.69 96.0813ZM160.195 95.733C160.251 95.733 160.306 95.675 160.362 95.675C160.864 96.6038 161.366 97.5323 161.923 98.4611C162.481 99.3897 163.094 100.26 163.763 101.131C163.038 101.479 162.313 101.77 161.533 102.118L160.195 95.733ZM162.09 91.6699C164.822 91.4958 167.554 91.1475 170.286 90.6251C170.676 91.0314 171.066 91.3797 171.457 91.728C168.39 92.3663 165.268 92.8307 162.146 93.0629C162.202 92.5985 162.202 92.1341 162.09 91.6699ZM156.85 79.4806C156.348 78.9581 155.902 78.4357 155.456 77.9135C154.787 77.1588 154.174 76.3461 153.56 75.5336C152.724 74.4887 151.944 73.444 151.219 72.3411C153.672 72.5733 156.069 72.6314 158.522 72.4572C159.47 72.3992 160.362 72.283 161.31 72.1669C159.86 74.6629 158.355 77.1007 156.85 79.4806ZM156.348 16.7346C157.129 16.2122 158.021 15.922 158.968 15.8639H159.303H159.693C159.916 15.8639 160.139 15.922 160.362 15.922C160.808 15.98 161.198 16.1541 161.589 16.3863C161.923 16.6185 162.202 16.9668 162.369 17.315C162.425 17.4311 162.481 17.5472 162.481 17.7213C161.087 17.4892 159.693 17.3731 158.299 17.4311C157.296 17.4311 156.348 17.4892 155.344 17.6053C155.623 17.315 155.958 16.9668 156.348 16.7346ZM143.525 68.8585C142.355 68.5102 141.184 67.9878 140.124 67.4073C139.567 67.117 139.065 66.8268 138.564 66.4787C138.341 66.3046 138.118 66.1304 137.95 65.9563C137.895 65.8982 137.783 65.7821 137.783 65.7821L137.727 65.7241L137.671 65.608L137.616 65.3758C136.891 62.8218 136.055 60.3259 134.996 57.888C135.051 59.3973 135.218 60.8483 135.442 62.2994C134.661 62.2413 133.936 61.8932 133.323 61.4288C132.542 60.7322 131.873 59.9195 131.427 58.9329C130.48 57.0175 129.922 54.986 129.755 52.8381C129.978 52.6642 130.201 52.6061 130.48 52.5481C130.703 52.5481 130.87 52.5481 131.093 52.5481C131.149 52.5481 131.204 52.5481 131.204 52.5481C131.26 52.5481 131.316 52.5481 131.372 52.6061C131.483 52.6061 131.539 52.664 131.651 52.664C132.096 52.8381 132.487 53.0122 132.877 53.2444C133.323 53.5347 133.825 53.825 134.382 54.1152C134.327 52.664 133.435 51.4451 132.096 50.9807C131.929 50.9227 131.706 50.8646 131.539 50.8646C131.483 50.8646 131.372 50.8646 131.316 50.8646C131.204 50.8646 131.093 50.8646 131.037 50.8646C130.647 50.9227 130.312 51.0388 129.978 51.271C129.867 51.329 129.811 51.3871 129.699 51.5032C129.643 50.5163 129.699 49.5878 129.867 48.6009C129.922 47.9045 130.424 47.324 131.093 47.1499C131.818 47.0918 132.542 47.324 133.156 47.7884C133.88 48.3687 134.94 50.2844 134.94 50.2844C134.995 50.4002 135.107 50.4583 135.218 50.5744C135.274 51.271 135.386 51.9676 135.553 52.6061C135.999 54.2313 136.612 55.8565 137.449 57.3077C137.839 58.0622 138.229 58.7588 138.675 59.4554C139.121 60.0937 139.455 60.7903 139.79 61.4869C140.292 62.9379 140.069 64.5631 139.233 65.8402C139.177 65.8982 139.177 65.9563 139.177 66.0143C139.177 66.0143 139.177 66.0143 139.177 66.0724C139.177 66.1885 139.288 66.3046 139.456 66.2465H139.511C140.236 66.1304 140.961 65.7821 141.518 65.3177C142.132 64.7953 142.633 64.0989 142.856 63.3442C143.191 61.8352 143.191 60.2098 142.745 58.7587C142.41 57.3077 141.964 55.9145 141.63 54.5796C141.463 53.9411 141.295 53.2445 141.184 52.6061C141.072 51.9676 141.072 51.329 141.128 50.6905C141.295 49.3556 141.686 48.0785 142.243 46.9177C142.355 46.6274 142.522 46.3952 142.633 46.105L142.801 46.163L143.637 46.3372C144.194 46.4533 144.752 46.6274 145.309 46.7435C146.424 47.0338 147.54 47.266 148.599 47.6143C149.658 47.9626 150.773 48.2526 151.888 48.6589C152.947 49.0653 154.007 49.3555 155.122 49.7619C154.229 49.0072 153.282 48.3687 152.334 47.7884C151.331 47.1499 150.271 46.5694 149.268 46.0469C148.264 45.5247 147.149 45.0022 146.034 44.5378C145.477 44.3056 144.919 44.1315 144.362 43.8993L144.083 43.7832C144.194 43.6671 144.25 43.4929 144.362 43.3771C144.752 42.7966 145.142 42.2741 145.532 41.4614C145.867 40.765 146.146 40.0684 146.369 39.3138C146.759 38.095 147.038 36.8179 147.261 35.541C148.71 35.1927 150.215 34.9605 151.665 34.7863C153.338 34.6122 155.01 34.5542 156.682 34.4961C160.028 34.4961 163.373 34.8444 166.662 35.4829C166.829 35.541 166.941 35.483 167.108 35.4249C168.836 34.7864 170.62 34.2058 172.46 33.7417C174.077 33.2773 175.749 33.0451 177.478 32.8709C177.756 33.2773 177.979 33.6836 178.202 34.0898C178.481 34.6703 178.76 35.2508 178.983 35.8313C179.429 37.0501 179.819 38.2691 180.042 39.546C180.544 42.1 180.767 44.712 180.655 47.324C180.6 47.7884 180.934 48.1945 181.38 48.1945C181.547 48.1945 181.77 48.1365 181.882 48.0206C181.938 47.9626 181.993 47.9626 182.049 47.9045C182.105 47.8465 182.161 47.7884 182.161 47.7304C182.161 47.7304 182.161 47.7304 182.161 47.6723V47.6143C182.328 47.1499 182.551 46.7435 182.83 46.3952C183.108 45.9889 183.443 45.5828 183.833 45.2345C184.447 44.712 185.227 44.4798 186.007 44.5378C186.732 44.6539 187.067 45.4086 187.178 46.105C187.234 46.4533 187.29 46.8596 187.345 47.2079C187.401 47.4982 187.401 47.7884 187.401 48.0785C187.401 48.2526 187.401 48.3687 187.401 48.5429C187.401 48.6009 187.345 48.9492 187.401 48.9492C187.29 48.8331 187.234 48.775 187.122 48.6589C186.788 48.4267 186.453 48.3107 186.063 48.2526C185.952 48.2526 185.84 48.2526 185.784 48.2526C185.729 48.2526 185.617 48.2526 185.561 48.2526C185.338 48.2526 185.171 48.3107 185.004 48.3687C183.722 48.8331 182.774 50.0522 182.718 51.5032C183.331 51.2129 183.778 50.8646 184.223 50.6324C184.614 50.4002 185.004 50.1682 185.45 50.0521C185.561 50.0521 185.673 49.9941 185.729 49.9941C185.784 49.9941 185.84 49.9941 185.896 49.936H186.007C186.231 49.936 186.398 49.936 186.621 49.936C186.9 49.9941 187.178 50.0521 187.401 50.2263C187.178 52.3159 186.621 54.4054 185.673 56.2628C185.227 57.1916 184.558 58.0041 183.722 58.7007C182.997 59.2812 182.049 59.5714 181.157 59.5134C181.157 58.2363 181.046 56.9594 180.767 55.6823C180.377 56.9594 180.042 58.2944 179.819 59.6295C179.708 60.2678 179.596 60.9644 179.485 61.603L179.317 62.5315C179.317 62.7057 179.262 62.8218 179.206 62.9959V63.054C179.206 63.054 179.15 63.112 179.15 63.1701C178.816 63.5764 178.425 63.9828 177.979 64.3309C177.478 64.6792 176.976 65.0275 176.474 65.3758C175.415 66.0143 174.3 66.5368 173.129 67.059C168.446 68.9166 163.54 70.0774 158.522 70.4257C153.338 70.832 148.32 70.3096 143.525 68.8585ZM140.905 98.8675C140.292 99.1575 139.567 99.0997 139.01 98.6933C138.452 98.1128 138.006 97.4162 137.727 96.6038C137.56 96.1394 137.393 95.6749 137.281 95.2105C137.839 95.5588 138.34 95.8491 138.898 96.1974C139.957 96.7777 141.017 97.3001 142.132 97.8226C141.853 98.287 141.407 98.6353 140.905 98.8675ZM145.755 96.6618C145.755 96.8357 145.755 97.0099 145.755 97.184C143.637 96.6038 141.574 95.8491 139.623 94.8042C138.452 94.2239 137.281 93.5273 136.166 92.8307C135.218 92.2502 134.215 91.6119 133.323 90.9153L147.205 71.7025C147.762 71.8186 148.376 71.9347 148.933 72.0508C150.104 73.5599 151.331 74.9531 152.557 76.4042C153.728 77.7393 155.01 79.0162 156.404 80.1191C156.237 80.4094 156.069 80.6414 155.902 80.9316C155.344 81.8024 154.787 82.615 154.174 83.4856C153.616 84.2983 153.003 85.1688 152.39 85.9815C151.331 87.4328 150.215 88.8257 149.045 90.1606C148.543 90.1026 148.097 90.1026 147.595 90.0445C147.595 89.5223 147.595 88.9999 147.539 88.4774C147.484 85.6912 147.205 82.9631 146.703 80.2352C146.201 82.9631 145.923 85.6912 145.867 88.4774C145.811 91.2055 145.755 93.9337 145.755 96.6618ZM145.811 109.838C144.306 109.722 142.801 109.606 141.295 109.431C142.801 109.199 144.25 108.909 145.755 108.561C146.424 108.445 147.038 108.271 147.707 108.155C148.431 107.98 149.156 107.806 149.825 107.632C153.505 106.645 157.073 105.543 160.641 104.149C164.209 102.814 167.665 101.247 171.011 99.4478C171.122 99.3897 171.289 99.2736 171.401 99.2155C171.568 99.0997 171.791 98.9836 171.958 98.9255C174.913 97.3001 177.756 95.5008 180.432 93.4112L180.767 93.5854C181.046 93.7595 181.324 93.9337 181.603 94.0498C180.042 95.6169 178.37 97.126 176.586 98.4611C175.638 99.2156 174.634 99.9122 173.631 100.609C173.408 100.783 173.185 100.899 173.018 101.073C172.07 101.711 171.122 102.35 170.174 102.931C165.77 105.659 161.254 108.155 156.515 110.36C153.56 110.302 150.662 110.186 147.707 110.012C147.038 109.896 146.424 109.838 145.811 109.838ZM155.679 114.481C155.568 114.714 155.344 114.946 155.066 115.062C154.787 115.236 154.453 115.294 154.118 115.294C153.728 115.294 143.804 115.41 143.748 115.41C143.916 115.12 144.139 114.888 144.362 114.714C144.64 114.481 145.031 114.307 145.365 114.191C145.755 114.017 146.201 113.959 146.647 113.901H155.791C155.846 114.191 155.791 114.365 155.679 114.481ZM185.784 112.218C184.558 112.334 183.331 112.334 182.105 112.276C180.265 111.637 178.425 111.115 176.474 110.824C174.523 110.476 172.516 110.36 170.564 110.36C168.613 110.36 166.606 110.534 164.655 110.882C163.651 111.057 162.704 111.231 161.756 111.463C160.864 111.695 159.916 111.927 159.024 112.276H147.539C147.539 111.869 147.595 111.405 147.595 110.999C150.55 111.289 153.56 111.521 156.571 111.695C156.682 111.695 156.738 111.695 156.85 111.637C159.247 110.534 161.589 109.315 163.93 108.097C165.658 107.168 167.387 106.181 169.059 105.194L169.394 104.962C169.84 104.672 170.286 104.44 170.787 104.149C171.847 103.511 172.85 102.814 173.909 102.176C174.3 102.582 174.69 102.989 175.08 103.395C177.478 105.833 180.098 107.98 182.941 109.78C180.488 107.458 178.035 105.136 175.638 102.756C175.303 102.408 174.913 102.06 174.579 101.653C175.526 101.015 176.474 100.377 177.366 99.68C178.76 98.6353 180.154 97.5323 181.436 96.3715L195.82 109.083C193.813 110.128 191.638 110.999 189.464 111.637C188.293 111.927 187.067 112.102 185.784 112.218ZM198.217 115.468H196.712C194.704 115.468 192.753 115.468 190.746 115.41H189.241C188.795 115.41 188.405 115.352 187.959 115.236C187.624 115.12 187.345 114.946 187.178 114.656C187.067 114.539 187.011 114.365 186.955 114.191C186.9 114.017 186.9 113.901 186.9 113.727C187.847 113.553 188.851 113.378 189.798 113.146C190.356 112.972 190.913 112.798 191.471 112.624C192.419 113.146 193.422 113.495 194.482 113.669C195.039 113.727 195.597 113.669 195.987 113.727C196.433 113.727 196.823 113.843 197.269 114.017C197.659 114.191 197.994 114.423 198.328 114.714C198.551 114.946 198.719 115.236 198.83 115.584L198.217 115.468Z" fill="#010101" />
        <path d="M157.245 59.2805C157.858 59.7445 158.639 59.9765 159.42 59.9765C160.2 59.9765 160.925 59.6864 161.538 59.2225C162.151 58.8166 162.597 58.1785 162.764 57.4245C161.705 57.8884 160.535 58.1785 159.364 58.2365C158.193 58.2365 157.078 57.9465 156.074 57.4245C156.186 58.1785 156.632 58.8744 157.245 59.2805Z" fill="#010101" />
        <path d="M154.949 63.2858C155.562 63.4019 156.175 63.576 156.733 63.7502C157.346 63.9243 158.74 64.3307 158.796 64.3307C158.796 64.3307 162.531 62.9377 163.144 62.7055C163.256 62.6474 163.367 62.6474 163.534 62.5894C163.646 62.5894 163.758 62.5894 163.869 62.6474C164.203 62.7635 164.538 62.8796 164.872 62.9955L166.935 63.9243C166.433 63.2858 165.932 62.7055 165.318 62.183C164.984 61.8928 164.649 61.6606 164.259 61.4864C164.036 61.3703 163.758 61.3123 163.534 61.2542C163.311 61.2542 163.033 61.2542 162.81 61.3123C162.029 61.4864 161.304 61.7767 160.58 62.125C159.966 62.4733 159.353 62.8216 158.851 63.2858C158.35 62.9377 157.792 62.6474 157.235 62.4152C156.566 62.125 155.841 61.9508 155.116 61.8928C154.726 61.8928 154.28 61.9508 153.89 62.0669C153.555 62.2411 153.22 62.4152 152.886 62.6474C152.329 63.1116 151.827 63.6341 151.492 64.2726C152.161 63.9824 152.775 63.6921 153.332 63.4599C153.834 63.2857 154.391 63.2277 154.949 63.2858Z" fill="#010101" />
        <path d="M149.487 50.1102C148.595 49.9941 147.703 49.9361 146.756 49.9361C145.864 49.9361 144.916 49.9941 144.024 50.1102C143.076 50.2261 142.184 50.4583 141.292 50.8061C142.184 51.1542 143.076 51.3862 144.024 51.5023C144.916 51.6182 145.808 51.6762 146.756 51.6762C147.648 51.6762 148.595 51.6182 149.487 51.5023C150.435 51.3862 151.327 51.1542 152.219 50.8061C151.327 50.4583 150.38 50.2261 149.487 50.1102Z" fill="#010101" />
        <path d="M171.793 49.9361C170.789 49.9361 169.73 49.9941 168.726 50.1102C167.667 50.2261 166.664 50.4583 165.66 50.8061C166.664 51.1542 167.667 51.3862 168.726 51.5023C169.73 51.6182 170.733 51.6762 171.793 51.6762C172.796 51.6762 173.856 51.6182 174.859 51.5023C175.918 51.3862 176.922 51.1542 177.925 50.8061C176.922 50.4583 175.918 50.2261 174.859 50.1102C173.856 49.9941 172.852 49.9361 171.793 49.9361Z" fill="#010101" />
        <path d="M168.507 42.9705C170.569 41.2292 172.911 39.8941 175.476 39.0235C175.587 38.9655 175.698 38.9655 175.81 38.9074C175.81 38.9074 175.364 37.224 172.911 37.7464C173.636 37.1079 174.026 36.1793 174.026 35.1925H173.97C172.576 35.8891 171.238 36.8177 170.012 37.8626C168.841 38.9075 167.782 40.0102 166.834 41.2292C165.886 42.4481 165.05 43.6669 164.269 45.002C163.489 46.2789 162.876 47.6721 162.43 49.1231C164.325 46.9175 166.332 44.8279 168.507 42.9705Z" fill="#010101" />
        <path d="M155.622 49.7621C155.956 49.4138 156.235 48.9496 156.403 48.4272C156.57 47.9047 156.626 47.3823 156.57 46.8601C156.514 46.3376 156.403 45.8152 156.235 45.3508C156.068 44.8864 155.733 44.4222 155.398 44.0739C155.566 45.1186 155.733 45.9893 155.789 46.9181C155.789 47.9048 155.733 48.8336 155.622 49.7621Z" fill="#010101" />
        <path d="M160.306 48.4265C160.641 48.7748 161.031 49.0651 161.533 49.1812C161.031 48.4846 160.641 47.6721 160.362 46.8594C160.139 45.9889 159.916 45.1181 159.86 44.2474C159.637 44.6537 159.469 45.1762 159.413 45.6406C159.358 46.1628 159.413 46.6272 159.581 47.1497C159.748 47.6141 159.971 48.0784 160.306 48.4265Z" fill="#010101" />
        <path d="M187.956 95.0371C187.956 95.0371 188.011 95.0371 188.011 95.0951L188.067 95.1532C188.179 95.2693 188.234 95.3854 188.234 95.5015C188.234 95.7917 188.011 96.0818 187.677 96.0818H187.733C187.621 96.0818 187.565 96.0818 187.454 96.0237C187.398 96.0237 187.231 95.9078 187.119 95.8498L186.283 95.3854L184.611 94.4566C184.332 94.2824 184.053 94.1663 183.774 93.9922C183.328 93.76 182.827 93.47 182.38 93.1797C181.99 92.9475 181.656 92.7733 181.266 92.5411L181.042 92.4251L179.816 91.6704L177.976 90.5677C177.698 90.3935 177.363 90.2194 177.363 90.1033C177.251 89.9872 177.196 89.813 177.251 89.6389C177.251 89.2906 177.53 89.0584 177.865 89.0584C178.032 89.0584 178.088 89.1164 178.422 89.2906L179.258 89.813L179.593 89.9872L180.095 90.2774L180.931 90.7418C180.931 90.7418 180.987 90.7418 180.987 90.7999C182.046 91.4382 183.161 92.0767 184.22 92.7153C185.335 93.3538 186.45 93.9922 187.565 94.5727L188.011 94.8049L187.956 95.0371C187.956 95.0371 187.9 94.979 187.956 95.0371Z" fill="#FECB3D" />
        <path d="M191.189 78.4359L192.472 79.3064L189.517 84.1241C189.071 83.8339 188.625 83.5436 188.123 83.3114L191.189 78.4359Z" fill="#FECB3D" />
    </g>
    <defs>
        <clipPath id="clip0_0_3">
            <rect width="200" height="117" fill="white" />
        </clipPath>
    </defs>
</svg>
    